Coordinates
version=1
nRows=29
nColumns=24
inDegrees=yes

Units are S.I. units (second, meters, Newtons, ...)
Angles are in degrees.

endheader
time	pelvis_tilt	pelvis_list	pelvis_rotation	pelvis_tx	pelvis_ty	pelvis_tz	hip_flexion_r	hip_adduction_r	hip_rotation_r	knee_angle_r	ankle_angle_r	subtalar_angle_r	mtp_angle_r	hip_flexion_l	hip_adduction_l	hip_rotation_l	knee_angle_l	ankle_angle_l	subtalar_angle_l	mtp_angle_l	lumbar_extension	lumbar_bending	lumbar_rotation
      4.59500000	    -18.09959104	      3.07320742	     -7.22513797	     -1.39001915	     -0.03634952	     -0.28398053	      3.13565416	     -0.61103014	     -1.74618587	    -18.05534658	     12.21604807	      1.26668815	      0.98436720	     44.15329344	     -3.13561381	    -20.46689721	    -12.96330987	     -0.50131109	      7.51666212	     22.83394860	     18.30704573	     -2.46278890	     -1.18417299
      4.60000000	    -18.04305587	      3.26776936	     -7.31847764	     -1.38285211	     -0.03696844	     -0.28436288	      2.98462269	     -0.99323579	     -1.75365762	    -18.68359686	     11.77652958	      1.62179038	      1.28872489	     44.07477357	     -2.95475837	    -20.27130691	    -13.43598080	     -0.89581017	      7.07567889	     22.77327293	     18.38902882	     -2.67019700	     -1.08119217
      4.60500000	    -17.99010276	      3.48561866	     -7.39087383	     -1.37559227	     -0.03755557	     -0.28479985	      2.86978854	     -1.41158346	     -1.78183798	    -19.36821158	     11.27718350	      1.99334494	      1.62283076	     43.98614036	     -2.73297851	    -20.07265407	    -13.92845738	     -1.41701170	      6.49274480	     22.70361288	     18.48750096	     -2.90169347	     -0.99399993
      4.61000000	    -17.93689041	      3.71611681	     -7.45887580	     -1.36828249	     -0.03809132	     -0.28522571	      2.78898826	     -1.84781379	     -1.82638627	    -20.10097926	     10.70851008	      2.35339636	      1.99446431	     43.89519479	     -2.49896123	    -19.86595253	    -14.45744874	     -2.07350496	      5.77632569	     22.61823084	     18.59318446	     -3.15613461	     -0.91847633
      4.61500000	    -17.89200009	      3.96302108	     -7.51504072	     -1.36092887	     -0.03857798	     -0.28568274	      2.75812194	     -2.30501616	     -1.85683483	    -20.89469006	     10.05843879	      2.68754176	      2.39001145	     43.80853808	     -2.23996824	    -19.65604651	    -15.00150878	     -2.85731902	      4.93124771	     22.49375224	     18.71350722	     -3.42877506	     -0.84758640
      4.62000000	    -17.82526517	      4.18095086	     -7.46941374	     -1.35354952	     -0.03902052	     -0.28631362	      2.73374536	     -2.77216867	     -2.15241542	    -21.74005532	      9.31155475	      3.09396824	      3.19577208	     43.71403785	     -1.91554382	    -19.26830075	    -15.56755527	     -3.75463827	      3.88163991	     22.34737834	     18.79650544	     -3.70556910	     -0.87878567
      4.62500000	    -17.79527559	      4.45613715	     -7.51644655	     -1.34616411	     -0.03938722	     -0.28680672	      2.81608690	     -3.26848075	     -2.18557705	    -22.65235833	      8.46511681	      3.34938176	      3.91663768	     43.64750947	     -1.61842224	    -18.99850262	    -16.14581368	     -4.71568300	      2.76419082	     22.03843350	     18.93740791	     -4.00617185	     -0.80045929
      4.63000000	    -17.77327342	      4.74723367	     -7.52995647	     -1.33875326	     -0.03969512	     -0.28732927	      2.95625231	     -3.78531759	     -2.25495903	    -23.63286277	      7.51505389	      3.55877865	      4.67783813	     43.59414869	     -1.27852784	    -18.65607263	    -16.73827876	     -5.68589263	      1.56142399	     21.55112023	     19.09120172	     -4.33945651	     -0.76678162
      4.63500000	    -17.77242115	      5.06459419	     -7.45508467	     -1.33126924	     -0.03996236	     -0.28796347	      3.14319584	     -4.34054483	     -2.39725454	    -24.63909870	      6.44398177	      3.69271387	      5.83651309	     43.57637185	     -0.84906347	    -18.22735943	    -17.35943322	     -6.63149149	      0.34010724	     20.73563790	     19.27306030	     -4.72800035	     -0.85029173
      4.64000000	    -17.75670098	      5.36964856	     -7.49426440	     -1.32390977	     -0.04012460	     -0.28850559	      3.43355350	     -4.87495352	     -2.43435444	    -25.78993407	      5.24718858	      3.77382590	      6.73757472	     43.52949955	     -0.49319384	    -17.74287711	    -17.97633881	     -7.42884226	     -0.92343020	     19.85477944	     19.42803044	     -5.05546622	     -0.71442703
      4.64500000	    -17.72761581	      5.70470864	     -7.44030487	     -1.31648401	     -0.04020851	     -0.28908849	      3.71749260	     -5.43920348	     -2.51333521	    -26.89207631	      3.82269542	      3.49542588	      8.85895806	     43.49624515	     -0.05235550	    -17.24265861	    -18.69560244	     -7.98753142	     -1.87925996	     18.12361219	     19.57340106	     -5.46634459	     -0.74822248
      4.65000000	    -17.74467432	      6.02595523	     -7.38264778	     -1.30912797	     -0.04029813	     -0.28977917	      4.14734556	     -6.00027091	     -2.59698503	    -28.17943118	      2.40875327	      3.50968697	      9.81344495	     43.50935822	      0.38797445	    -16.74715437	    -19.36318194	     -8.56665272	     -3.09483015	     17.07415691	     19.75374434	     -5.83858785	     -0.80229538
      4.65500000	    -17.76243372	      6.35845149	     -7.31087603	     -1.30165227	     -0.04029882	     -0.29046664	      4.60417724	     -6.56998792	     -2.68251287	    -29.43347947	      0.71778563	      3.22170867	     11.64771263	     43.50152314	      0.85747508	    -16.20802705	    -20.06862840	     -8.80399762	     -3.99328212	     15.35396846	     19.95695085	     -6.22550502	     -0.81493329
      4.66000000	    -17.74796290	      6.67625356	     -7.27610457	     -1.29436269	     -0.04024972	     -0.29111309	      5.12567353	     -7.11141391	     -2.66711720	    -30.79496609	     -1.05942920	      2.82875657	     13.49321195	     43.47049077	      1.28674617	    -15.73911650	    -20.79880772	     -8.87002571	     -4.78228008	     13.74713224	     20.09490954	     -6.59412173	     -0.81031223
      4.66500000	    -17.73143600	      6.98386003	     -7.23550032	     -1.28712631	     -0.04016881	     -0.29177267	      5.70789055	     -7.63409640	     -2.61946160	    -32.21526210	     -2.96179780	      2.33431417	     15.37019104	     43.42849837	      1.70929243	    -15.32569939	    -21.53177199	     -8.76013564	     -5.42610398	     12.19717388	     20.22049608	     -6.95088318	     -0.81607140
      4.67000000	    -17.70569199	      7.28181214	     -7.20316333	     -1.27995240	     -0.04004275	     -0.29239799	      6.33924125	     -8.12995384	     -2.51560328	    -33.67674922	     -4.97900349	      1.71716842	     17.28436651	     43.35612159	      2.11385914	    -14.98147006	    -22.24678170	     -8.48493511	     -5.91419616	     10.71559859	     20.32339978	     -7.29947484	     -0.81363850
      4.67500000	    -17.67588203	      7.57367213	     -7.16845536	     -1.27283456	     -0.03988362	     -0.29301863	      7.02241580	     -8.60456353	     -2.36527920	    -35.18407011	     -7.08730473	      1.01628965	     19.12570580	     43.25585015	      2.50989506	    -14.71491355	    -22.93104259	     -8.08756820	     -6.27227205	      9.37270541	     20.41512244	     -7.64092000	     -0.81569337
      4.68000000	    -17.64253537	      7.85997402	     -7.13484971	     -1.26578930	     -0.03969712	     -0.29361115	      7.75634153	     -9.05500632	     -2.17234800	    -36.73519241	     -9.24582761	      0.24262959	     20.82191782	     43.12246445	      2.89340892	    -14.52786993	    -23.56948923	     -7.59286982	     -6.51273698	      8.20130547	     20.49256277	     -7.97917984	     -0.82102961
      4.68500000	    -17.59771754	      8.14001695	     -7.09635253	     -1.25882997	     -0.03947852	     -0.29418915	      8.52687031	     -9.48211605	     -1.94667614	    -38.32521452	    -11.41952570	     -0.59108457	     22.34722692	     42.94678442	      3.26946460	    -14.41663829	    -24.15558565	     -7.03006718	     -6.64750172	      7.20365775	     20.54165491	     -8.31505114	     -0.83669696
      4.69000000	    -17.55148583	      8.40936958	     -7.07065317	     -1.25198302	     -0.03924523	     -0.29471493	      9.35217848	     -9.87700470	     -1.69085790	    -39.96787195	    -13.55425265	     -1.44929149	     23.52351118	     42.73542481	      3.62209443	    -14.36556643	    -24.67415312	     -6.43488636	     -6.74016812	      6.46560399	     20.57545398	     -8.64179069	     -0.82449645
      4.69500000	    -17.49521779	      8.68256239	     -7.03415074	     -1.24514489	     -0.03896119	     -0.29526584	     10.19108660	    -10.26026506	     -1.40708984	    -41.61903523	    -15.64345720	     -2.33478628	     24.35871601	     42.46646492	      3.98779242	    -14.38519275	    -25.10586679	     -5.82404430	     -6.78655008	      5.96087178	     20.59733912	     -8.96215511	     -0.84904699
      4.70000000	    -17.36992599	      8.99600431	     -6.91720587	     -1.23833959	     -0.03859556	     -0.29582600	     10.97024601	    -10.70638353	     -1.23457220	    -43.31621463	    -17.55633745	     -3.16211343	     24.48674204	     42.07204339	      4.45647973	    -14.40835537	    -25.40081569	     -5.33179952	     -6.88320602	      5.90001320	     20.53351538	     -9.38512260	     -0.99701120
      4.70500000	    -17.44215321	      9.21356045	     -6.93396624	     -1.23179257	     -0.03838767	     -0.29622758	     12.04692850	    -10.94326907	     -0.81145554	    -45.00125216	    -19.44928068	     -4.18939402	     25.43089135	     41.89631375	      4.68155663	    -14.56755381	    -25.77949210	     -4.58258892	     -6.56824761	      5.38002871	     20.65808591	     -9.62325044	     -0.94681900
      4.71000000	    -17.30880735	      9.50640618	     -6.81693306	     -1.22512062	     -0.03793569	     -0.29681566	     12.86602531	    -11.35367831	     -0.64753658	    -46.67855577	    -21.09973359	     -5.10640037	     25.50240197	     41.42059915	      5.14441202	    -14.65462579	    -25.94292780	     -4.07322584	     -6.60746941	      5.35599808	     20.56465028	    -10.01609313	     -1.11408277
      4.71500000	    -17.22742817	      9.76303803	     -6.75874596	     -1.21858876	     -0.03748725	     -0.29730166	     13.78755778	    -11.67372008	     -0.39123117	    -48.34888800	    -22.58878820	     -6.11920264	     25.55696085	     40.97346756	      5.51424592	    -14.80027963	    -26.06991074	     -3.50769353	     -6.48418677	      5.36443432	     20.51508010	    -10.34023008	     -1.19368373
      4.72000000	    -17.23298862	      9.94475631	     -6.77950481	     -1.21224430	     -0.03705510	     -0.29762057	     14.84790730	    -11.82519745	      0.02076543	    -49.99836798	    -23.90013719	     -7.16546971	     25.59806445	     40.61165572	      5.71886787	    -15.06726070	    -26.20851250	     -2.87988802	     -6.16663303	      5.33553615	     20.53901358	    -10.55435384	     -1.23011856
      4.72500000	    -17.19121983	     10.15919727	     -6.72409408	     -1.20584986	     -0.03654659	     -0.29805693	     15.83754586	    -12.05676314	      0.28767066	    -51.60878109	    -24.90058872	     -8.17911582	     25.44239415	     40.14912158	      6.04123643	    -15.24060945	    -26.23431801	     -2.32538815	     -5.93059480	      5.36915721	     20.51422188	    -10.83339010	     -1.33462475
      4.73000000	    -17.12002705	     10.37316006	     -6.61507423	     -1.19941513	     -0.03596825	     -0.29857746	     16.77101618	    -12.32129008	      0.45289667	    -53.15831506	    -25.57838188	     -9.12415219	     25.25279821	     39.61515202	      6.41994618	    -15.35427664	    -26.18322847	     -1.80703389	     -5.70722446	      5.47702778	     20.45467668	    -11.12649996	     -1.48834987
      4.73500000	    -17.06315772	     10.53822101	     -6.57194034	     -1.19310290	     -0.03531565	     -0.29898762	     17.74404472	    -12.47467609	      0.70288730	    -54.65396508	    -26.00503576	    -10.11888547	     24.93419327	     39.07360524	      6.70702793	    -15.51054029	    -26.09150390	     -1.31306309	     -5.46369229	      5.60720780	     20.40228815	    -11.35004139	     -1.61329717
